<svg width="165" height="41" viewBox="0 0 165 41" fill="none" xmlns="http://www.w3.org/2000/svg">
<path d="M21.984 0.343994V23H15.712V13.848H8.03196V23H1.72796V0.343994H8.03196V8.82399H15.712V0.343994H21.984Z" fill="#8EBE45"/>
<path d="M33.122 0.343994V13.272C33.122 14.552 33.3993 15.544 33.954 16.248C34.53 16.9307 35.394 17.272 36.546 17.272C37.698 17.272 38.562 16.92 39.138 16.216C39.7353 15.512 40.034 14.5307 40.034 13.272V0.343994H46.306V13.272C46.306 15.4053 45.8686 17.2187 44.994 18.712C44.1406 20.2053 42.9673 21.336 41.474 22.104C39.9806 22.8507 38.2953 23.224 36.418 23.224C34.5406 23.224 32.8766 22.8507 31.426 22.104C29.9966 21.3573 28.8766 20.2373 28.066 18.744C27.2553 17.2507 26.85 15.4267 26.85 13.272V0.343994H33.122Z" fill="#8EBE45"/>
<path d="M57.4382 18.232H64.5102V23H51.1342V0.343994H57.4382V18.232Z" fill="#8EBE45"/>
<path d="M80.6402 11.416L89.4082 23H81.8242L74.6882 12.984V23H68.3842V0.343994H74.6882V10.136L81.8882 0.343994H89.4082L80.6402 11.416Z" fill="#8EBE45"/>
<path d="M7.04396 31.504V33.388H4.75196V40H2.39996V33.388H0.131958V31.504H7.04396Z" fill="#8EBE45"/>
<path d="M16.9158 31.504V40H14.5638V36.568H11.6838V40H9.31983V31.504H11.6838V34.684H14.5638V31.504H16.9158Z" fill="#8EBE45"/>
<path d="M22.0901 33.388V34.792H24.8381V36.58H22.0901V38.116H25.1981V40H19.7261V31.504H25.1981V33.388H22.0901Z" fill="#8EBE45"/>
<path d="M37.2637 31.504V33.388H33.8557V34.9H36.3997V36.676H33.8557V40H31.4917V31.504H37.2637Z" fill="#8EBE45"/>
<path d="M42.034 31.504V36.352C42.034 36.832 42.138 37.204 42.346 37.468C42.562 37.724 42.886 37.852 43.318 37.852C43.75 37.852 44.074 37.72 44.29 37.456C44.514 37.192 44.626 36.824 44.626 36.352V31.504H46.978V36.352C46.978 37.152 46.814 37.832 46.486 38.392C46.166 38.952 45.726 39.376 45.166 39.664C44.606 39.944 43.974 40.084 43.27 40.084C42.566 40.084 41.942 39.944 41.398 39.664C40.862 39.384 40.442 38.964 40.138 38.404C39.834 37.844 39.682 37.16 39.682 36.352V31.504H42.034Z" fill="#8EBE45"/>
<path d="M54.0461 40L52.3301 36.868H52.0901V40H49.7261V31.504H53.4581C54.1381 31.504 54.7141 31.624 55.1861 31.864C55.6661 32.096 56.0261 32.42 56.2661 32.836C56.5061 33.252 56.6261 33.72 56.6261 34.24C56.6261 34.832 56.4621 35.348 56.1341 35.788C55.8061 36.22 55.3341 36.524 54.7181 36.7L56.6501 40H54.0461ZM52.0901 35.284H53.2541C53.9101 35.284 54.2381 34.988 54.2381 34.396C54.2381 34.116 54.1541 33.896 53.9861 33.736C53.8261 33.576 53.5821 33.496 53.2541 33.496H52.0901V35.284Z" fill="#8EBE45"/>
<path d="M68.1448 38.584H65.1328L64.6648 40H62.1808L65.2888 31.54H68.0128L71.1088 40H68.6128L68.1448 38.584ZM67.5568 36.808L66.6448 34.048L65.7208 36.808H67.5568Z" fill="#8EBE45"/>
<path d="M81.1522 40H78.7882L75.6682 35.26V40H73.3042V31.516H75.6682L78.7882 36.316V31.516H81.1522V40Z" fill="#8EBE45"/>
<path d="M91.7566 35.728C91.7566 36.552 91.5766 37.288 91.2166 37.936C90.8566 38.576 90.3446 39.08 89.6805 39.448C89.0165 39.816 88.2366 40 87.3406 40H83.9566V31.504H87.3406C88.2366 31.504 89.0165 31.684 89.6805 32.044C90.3525 32.396 90.8646 32.892 91.2166 33.532C91.5766 34.172 91.7566 34.904 91.7566 35.728ZM87.1245 37.888C87.8205 37.888 88.3686 37.7 88.7686 37.324C89.1686 36.948 89.3686 36.416 89.3686 35.728C89.3686 35.048 89.1686 34.52 88.7686 34.144C88.3686 33.76 87.8205 33.568 87.1245 33.568H86.3205V37.888H87.1245Z" fill="#8EBE45"/>
<path d="M104.427 31.504V33.388H102.135V40H99.7828V33.388H97.5148V31.504H104.427Z" fill="#8EBE45"/>
<path d="M114.299 31.504V40H111.947V36.568H109.067V40H106.703V31.504H109.067V34.684H111.947V31.504H114.299Z" fill="#8EBE45"/>
<path d="M119.473 33.388V34.792H122.221V36.58H119.473V38.116H122.581V40H117.109V31.504H122.581V33.388H119.473Z" fill="#8EBE45"/>
<path d="M134.647 31.504V33.388H131.239V34.9H133.783V36.676H131.239V40H128.875V31.504H134.647Z" fill="#8EBE45"/>
<path d="M139.417 31.504V36.352C139.417 36.832 139.521 37.204 139.729 37.468C139.945 37.724 140.269 37.852 140.701 37.852C141.133 37.852 141.457 37.72 141.673 37.456C141.897 37.192 142.009 36.824 142.009 36.352V31.504H144.361V36.352C144.361 37.152 144.197 37.832 143.869 38.392C143.549 38.952 143.109 39.376 142.549 39.664C141.989 39.944 141.357 40.084 140.653 40.084C139.949 40.084 139.325 39.944 138.781 39.664C138.245 39.384 137.825 38.964 137.521 38.404C137.217 37.844 137.065 37.16 137.065 36.352V31.504H139.417Z" fill="#8EBE45"/>
<path d="M151.429 40L149.713 36.868H149.473V40H147.109V31.504H150.841C151.521 31.504 152.097 31.624 152.569 31.864C153.049 32.096 153.409 32.42 153.649 32.836C153.889 33.252 154.009 33.72 154.009 34.24C154.009 34.832 153.845 35.348 153.517 35.788C153.189 36.22 152.717 36.524 152.101 36.7L154.033 40H151.429ZM149.473 35.284H150.637C151.293 35.284 151.621 34.988 151.621 34.396C151.621 34.116 151.537 33.896 151.369 33.736C151.209 33.576 150.965 33.496 150.637 33.496H149.473V35.284Z" fill="#8EBE45"/>
<path d="M164.201 31.504L161.201 37.3V40H158.849V37.3L155.849 31.504H158.549L160.049 34.744L161.537 31.504H164.201Z" fill="#8EBE45"/>
</svg>
